<?xml version="1.0" encoding="utf-8"?>
<!-- Generator: Adobe Illustrator 25.3.1, SVG Export Plug-In . SVG Version: 6.00 Build 0)  -->
<svg version="1.1" id="Layer_1" xmlns="http://www.w3.org/2000/svg" xmlns:xlink="http://www.w3.org/1999/xlink" x="0px" y="0px"
	 width="64px" height="64px" viewBox="0 0 64 64" style="enable-background:new 0 0 64 64;" xml:space="preserve">
<style type="text/css">
	.st0{display:none;}
	.st1{display:inline;}
</style>
<g id="icon-ios" class="st0">
	<path id="_xDBC1__xDFDC_" class="st1" d="M40.2,61.2c2,0,3.5-0.5,4.6-1.6c1.1-1,1.6-2.6,1.6-4.6v-38c0-2-0.5-3.5-1.6-4.5
		c-1.1-1-2.6-1.6-4.6-1.6H23.9c-2,0-3.6,0.5-4.6,1.6c-1.1,1-1.6,2.6-1.6,4.5v38c0,2,0.5,3.5,1.6,4.6c1.1,1,2.6,1.6,4.6,1.6H40.2z
		 M40,59.4H24c-1.5,0-2.7-0.4-3.4-1.1c-0.7-0.7-1.1-1.8-1.1-3.4V17.3c0-1.5,0.4-2.6,1.1-3.4c0.7-0.7,1.8-1.1,3.4-1.1h0.8v0.8
		c0,0.4,0.1,0.7,0.4,1s0.6,0.4,1,0.4h11.7c0.4,0,0.7-0.1,1-0.4c0.2-0.3,0.4-0.6,0.4-1l0-0.8l0.8,0c1.5,0,2.7,0.4,3.4,1.1
		c0.7,0.7,1.1,1.8,1.1,3.4V55c0,1.5-0.4,2.6-1.1,3.4C42.7,59,41.5,59.4,40,59.4z M38.4,57.7c0.2,0,0.4-0.1,0.5-0.2s0.2-0.3,0.2-0.6
		c0-0.2-0.1-0.4-0.2-0.5s-0.3-0.2-0.5-0.2H25.6c-0.2,0-0.4,0.1-0.6,0.2s-0.2,0.3-0.2,0.5c0,0.2,0.1,0.4,0.2,0.6s0.3,0.2,0.6,0.2
		H38.4z"/>
</g>
<g>
	<path d="M17.6,17.2c0-4,2.2-6.1,6.2-6.1h16.3c4,0,6.2,2.2,6.2,6.1v38c0,4-2.2,6.1-6.2,6.1H23.8c-4,0-6.2-2.2-6.2-6.1V17.2z
		 M44.4,54V18.4H19.5V54H44.4z M33.8,57.3c0-1-0.8-1.9-1.8-1.9s-1.9,0.8-1.9,1.9c0,1,0.9,1.9,1.9,1.9S33.8,58.3,33.8,57.3z
		 M33.2,14.7c0-0.7-0.6-1.2-1.2-1.2c-0.7,0-1.3,0.6-1.3,1.2c0,0.7,0.6,1.3,1.3,1.3C32.7,16,33.2,15.4,33.2,14.7z"/>
</g>
</svg>
